# xmcd CD database file
#
# Track frame offsets:
#	150
#	16295
#	32040
#	46887
#	64195
#	80212
#	94780
#	111942
#	128235
#	139680
#
# Disc length: 2088 seconds
#
# Revision: 3
# Processed by: cddbd v1.5.1PL0 Copyright (c) Steve Scherf et al.
# Submitted via: CDex 1.51
#
DISCID=8608260a
DTITLE=Twist Of Fate - Green Desert
DYEAR=1900
DGENRE=Folk
TTITLE0=The Way It Is
TTITLE1=Don't Let Me Fall Down
TTITLE2=I Am Running
TTITLE3=Green Desert
TTITLE4=You Can't Run Away
TTITLE5=Things From My Heart
TTITLE6=Up and Down
TTITLE7=Twist Of Fate
TTITLE8=Dark Eyes
TTITLE9=Gimme More
EXTD=
EXTT0=
EXTT1=
EXTT2=
EXTT3=
EXTT4=
EXTT5=
EXTT6=
EXTT7=
EXTT8=
EXTT9=
PLAYORDER=
